<?xml version="1.0" encoding="UTF-8"?>
<svg width="21px" height="21px" viewBox="0 0 21 21" version="1.1" xmlns="http://www.w3.org/2000/svg" xmlns:xlink="http://www.w3.org/1999/xlink">
    <!-- Generator: Sketch 55.1 (78136) - https://sketchapp.com -->
    <title>instagram</title>
    <desc>Created with Sketch.</desc>
    <g id="Page-1" stroke="none" stroke-width="1" fill="none" fill-rule="evenodd">
        <g id="Website_Keunefeesten_voorstel-Hover" transform="translate(-498.000000, -5031.000000)" fill="#FFFFFF" fill-rule="nonzero">
            <g id="Footer" transform="translate(0.000000, 4982.000000)">
                <g id="i-big" transform="translate(491.000000, 42.000000)">
                    <path d="M21.7439868,7 C25.1935289,7 28,9.806433 28,13.2560132 L28,21.7439868 C28,25.193567 25.193567,28 21.7439868,28 L13.2560132,28 C9.806433,28 7,25.193567 7,21.7439868 L7,13.2560132 C7,9.806433 9.806433,7 13.2560132,7 L21.7439868,7 Z M25.8874008,21.7439868 L25.8874008,13.2560132 C25.8874008,10.9676499 24.032312,9.11259922 21.7439868,9.11259922 L13.2560132,9.11259922 C10.967688,9.11259922 9.11259922,10.9676499 9.11259922,13.2560132 L9.11259922,21.7439868 C9.11259922,24.032312 10.967688,25.8874008 13.2560132,25.8874008 L21.7439868,25.8874008 C24.032312,25.8874008 25.8874008,24.032312 25.8874008,21.7439868 Z M17.5,12.0686528 C20.4948497,12.0686528 22.9313472,14.5051122 22.9313472,17.4999619 C22.9313472,20.4948116 20.4948497,22.9313091 17.5,22.9313091 C14.5051503,22.9313091 12.0686528,20.4947735 12.0686528,17.4999619 C12.0686528,14.5051503 14.5051503,12.0686528 17.5,12.0686528 Z M17.5,20.818748 C19.3328706,20.818748 20.818748,19.3328706 20.818748,17.5 C20.818748,15.6670913 19.3329087,14.181252 17.5,14.181252 C15.6671294,14.181252 14.181252,15.6670913 14.181252,17.5 C14.181252,19.3329087 15.6670913,20.818748 17.5,20.818748 Z M22.9418657,13.410893 C22.2230879,13.410893 21.6404033,12.8282084 21.6404033,12.1094306 C21.6404033,11.3906528 22.2230879,10.8079683 22.9418657,10.8079683 C23.6606435,10.8079683 24.243328,11.3906528 24.243328,12.1094306 C24.243328,12.8282084 23.6606435,13.410893 22.9418657,13.410893 Z" id="instagram"></path>
                </g>
            </g>
        </g>
    </g>
</svg>