<svg xmlns="http://www.w3.org/2000/svg" width="397" height="93" viewBox="0 0 397 93"><g><g><path fill="#f7eb41" d="M14.66 71.725c-.571.039-.994 3.699-1.216 10.407-.013 1.242-.451 4.713-1.687 4.796-.953.063-2.081-1.105-3.224-1.028-.285.019-.66.139-1.041.165-.57.038-.99-.508-1.02-.982-.032-.477.196-1.353.158-1.924-.057-.856-.75-1.192-1.13-1.167-.667.045-1.407 1.815-2.17 1.866-1.045.069-1.306-.963-1.356-1.726-.32-4.758 1.355-9.746 1.107-13.456C2.916 66.2.309 67.235.214 65.808c-.11-1.617 2.353-1.973 3.07-2.691.989-.927.748-4.543 1.47-8.033 1.32-6.014 5.49-39.463 9.584-39.737 2.284-.152 6.394 1.293 6.586 4.149.069 1.046-.845 1.68-.737 3.3.026.379.229.557.514.538.476-.032 1.118-.457 1.497-.483.285-.02.495.254.546 1.016.153 2.284-4.755 26.128-5.68 30.873-.146.68-.292 1.359-.267 1.738.02.286.242.75.81.71 3.429-.227 10.943-17.937 12.196-20.697 3.519-7.402 7.895-26.338 11.89-26.604 2.475-.165 6.18 5.228 6.53 7.595.083 1.235-1.427 2.963-1.388 3.534.019.284.413.449.889.418.379-.026.5.349.525.73.045.667-13.497 34.072-19.053 39.606-1.073 1.122-1.987 1.757-2.354 1.972 1.084 1.935 5.753 4.587 7.956 7.5.958 1.464 2.766 2.777 4.576 2.656 3.997-.267 8.113-8.762 8.97-8.82.38-.024.868.134.9.61.058.856-1.51 1.726-1.465 2.393.014.19.127.468.318.455.19-.013.646-.33 1.027-.354.285-.02.5.347.52.633.013 1.626-1.433 2.868-1.356 4.01.013.192.21.272.4.26.378-.025.734-.43 1.21-.462.286-.02.496.254.534.823.07 1.048-9.687 15.273-13.208 15.508-5.521.37-2.564-2.6-18.567-14.628-1.51-1.142-3.52-2.632-3.997-2.601M64.194 84.86c-5.045.336-9.555-4.238-11.605-7.732-.756-1.29-1.131-4.037-1.36-7.462-.711-10.66 8.645-29.447 20.162-30.216 2.283-.152 7.758 4.548 8.12 9.974.636 9.517-5.943 12.63-18.142 17.462.349 3.8 1.777 6.573 6.154 6.28 2.95-.197 10.93-5.222 11.87-6.911.26-.398.528-.704.908-.73.284-.018.678.147.696.433.058.855-1.921 2.708-1.896 3.088.014.19.305.267.495.254.287-.02.89-1.014 1.173-1.033.19-.012.299.172.318.455.045.667-1.65 2.5-1.604 3.167.012.19.108.184.298.17.285-.017.616-.805.997-.83.188-.013.488.158.519.635.044.666-.09 1.534-8.431 8.306-.635.522-6.77 4.562-8.672 4.69m5.297-30.756c-.114-1.712-1.65-4.666-3.17-4.565-2.567.171-5.232 13.151-5.067 15.622.467-.126 2.895-.956 2.857-1.528-.058-.856-1.832-.26-1.876-.926-.058-.854 3.225-1.743 3.182-2.41-.02-.283-.78-.232-1.35-.194-.665.045-.963-.126-.988-.508-.09-1.332 6.564-3.209 6.412-5.491m20.074 27.054c-1.238.082-5.978-3.615-6.346-9.135-1.208-18.082 2.73-33.545 4.633-33.672.763-.052 1.974.92 2.024 1.68.07 1.048-.328 2.22-.283 2.888.025.38.063.952.442.927.857-.057.52-2.234 1.569-2.303.855-.058 2.144.62 2.169 1 .07 1.048-.508 2.424-.483 2.805.02.286.128.47.605.438.856-.057.55-1.758 1.502-1.822.667-.045 1.277.489 1.327 1.25.102 1.523-5.113 15.064-4.796 19.823.065.95.566 1.299 1.043 1.267 3.234-.215 12.889-24.568 14.41-24.67 2.285-.151 2.456.985 2.609 1.833.038.572.165 1.042.547 1.017.285-.02.747-.241 1.128-.267 1.048-.07 3.02.849 3.097 1.992.032.476-.103 1.344-.343 2.03-1.534 5.647-3.526 13.046-3.17 18.373.044.667.076 1.144.742 1.099 1.618-.108 5.589-5.058 6.064-5.09.192-.012.496.255.522.636.07 1.045-1.182.938-1.06 2.748.05.759-1.783 1.934-1.751 2.41.019.284.215.367.407.354.285-.02 1.377-.855 1.852-.887.285-.02.482.063.495.254.038.57-.781 1.199-.768 1.389.005.095.114.279.305.266.285-.02.54-.514.825-.534.19-.012.31.363.336.744.115 1.713-10.107 11.859-11.628 11.96-1.903.128-3.154-1.413-4.377-2.576.303-1.166.558-3.094.533-3.475-.02-.286-.128-.47-.318-.458-.572.039-.768 2.824-1.34 2.863-.664.044-1.338-1.442-1.433-2.87-.153-2.283.61-3.767.405-6.813-.012-.19-.132-.565-.323-.552-1.81.12-7.175 12.81-11.172 13.078m30.655-11.902c-.292-4.376.306-34.045 3.638-34.267.76-.05 1.11.882 1.187 2.025l.063.95c.095 1.43.418 1.98.705 1.96.57-.038.52-2.232 1.756-2.315 1.427-.096 1.936.349 2.062 2.251.045.666-.114 1.156-.088 1.537.019.283.228.556.418.544.287-.02.623-2.145 1.668-2.215.668-.044 1.296.775 1.36 1.725.133 2-3.292 15.13-3.157 17.128.032.476.145.755.525.73.475-.032.965-1.306 1.733-2.696 4.578-8.715 9.03-17.902 9.793-17.953 1.237-.083 1.49.856 2.67 1.351 1.079.407.554 1.11 1.16 1.643 1.856.546 3.017 2.188 3.143 4.091.382 5.709-.892 10.956-.53 16.377.044.667.629.82 1.198.781 1.239-.083 3.14-4.509 3.808-4.554.285-.019.488.158.508.444.038.57-.978 1.116-.921 1.973.025.38.05.76.356 1.026.177-.203.54-.514.73-.526.283-.02.398.26.41.45.02.285-1.115 1.892-1.064 2.652.026.38.31.362.336.742.052.763-.856 1.49-.831 1.871.013.19.127.47.413.451.476-.032.97-1.213 1.446-1.245.19-.012.393.166.419.546.076 1.143-8.158 10.964-8.685 11.666-.71.813-1.458 1.055-2.03 1.092-2.19.146-5.654-5.93-5.788-7.928-.203-3.044.05-7.84-.147-9.355-.05-.761-.278-1.32-.66-1.295-1.236.083-7.591 17.998-9.78 18.144-1.713.114-4.277-2.488-5.02-3.586-1.483-2.194-2.678-4.313-2.804-6.215m49.703 8.552c-5.044.337-9.555-4.238-11.605-7.733-.755-1.29-1.13-4.038-1.359-7.464-.71-10.662 8.643-29.453 20.16-30.222 2.285-.154 7.76 4.55 8.121 9.976.636 9.519-5.942 12.633-18.14 17.466.349 3.8 1.775 6.574 6.153 6.28 2.95-.196 10.93-5.222 11.87-6.912.26-.398.527-.704.909-.729.282-.019.677.146.695.432.057.857-1.922 2.709-1.896 3.089.013.191.306.267.496.254.285-.019.889-1.014 1.173-1.033.19-.012.298.172.318.455.043.667-1.65 2.5-1.606 3.168.014.19.108.184.3.17.285-.017.615-.805.994-.83.19-.013.489.158.52.635.046.666-.088 1.535-8.43 8.308-.634.52-6.77 4.563-8.672 4.69m5.297-30.762c-.114-1.713-1.65-4.67-3.17-4.568-2.567.172-5.231 13.16-5.066 15.633.467-.127 2.894-.958 2.855-1.53-.057-.856-1.83-.26-1.875-.926-.057-.855 3.226-1.744 3.182-2.411-.02-.284-.78-.233-1.35-.195-.664.044-.964-.127-.989-.508-.088-1.333 6.565-3.211 6.413-5.495m37.596 14.602c.16 2.379-9.32 7.887-11.184 8.584-.044 13.673-.114 15.494-.778 15.539-.762.05-1.207-.876-1.78-.84-1.33.09-.478 2.806-1.621 2.883-1.332.089-1.002-2.132-1.668-2.088-.572.039.012 3.059-2.336 3.692-1.13.267.178 2.665-1.63 2.786-.666.044-1.37-.481-1.441-1.528-.152-2.284.29-14.263.196-21.426-1.55-.28-2.064-.82-2.172-2.436-.204-3.047-.127-6.204-.287-8.584-.057-.857.59-1.187 1.068-1.22.86.039 1.66.56 2.359.99.88-16.882 3.119-33.473 5.742-49.995.75-4.542 1.306-7.64 3.59-7.792.763-.051 1.29.679 1.372 1.915.07 1.048-.02 2.583.05 3.63.046.665.166 1.04.643 1.009.855-.058.093-2.875 1.782-3.37 2.639-.558 6.23 10.29 6.542 14.954.35 5.235-.391 15.607-1.691 20.473-.437 2.038-1.75 6.715-3.013 9.285-.336.69-.598 1.09-.786 1.103-.095.006-.21-.273-.254-.938-.101-1.524 1.87-6.34 1.738-8.338-.02-.286-.04-.572-.134-.566-.381.026-.774 2.729-1.441 2.774-.191.012-.203-.178-.223-.464-.031-.474.572-2.904 1.175-5.334 1.357-5.444 1.807-8.726 1.432-14.34-.102-1.523-.215-3.236-1.263-3.166-1.808.12-2.144 7.983-2.246 9.327-.506 6.725-1.722 21.432-1.676 32.137 3.515-.331 8.652-4.977 9.033-5.003.287-.02.572-.038.59.248.045.667-1.078 1.029-1.028 1.79.02.284.292.075.325.55.037.573-1.701 1.74-1.681 2.025.012.19.113.279.21.273.19-.013.908-.73 1.573-.773.19-.012.285-.02.303.267.038.57-1.248 1.325-1.23 1.61.014.192.21.274.306.267.379-.025.829-.438 1.21-.463.19-.013.305.266.324.553m13.445 12.388c-5.044.337-9.556-4.237-11.604-7.732-.757-1.29-1.131-4.037-1.36-7.462-.712-10.66 8.645-29.446 20.16-30.216 2.284-.152 7.76 4.549 8.123 9.975.636 9.516-5.945 12.63-18.144 17.462.349 3.799 1.777 6.572 6.154 6.28 2.95-.197 10.93-5.223 11.87-6.912.26-.398.528-.703.908-.73.286-.017.678.148.697.434.058.854-1.922 2.707-1.897 3.088.014.19.306.266.496.254.286-.02.889-1.014 1.174-1.033.188-.013.297.17.316.455.044.667-1.65 2.5-1.604 3.167.012.19.107.184.298.17.286-.018.615-.806.997-.831.19-.012.486.159.518.635.045.667-.088 1.535-8.43 8.307-.635.52-6.77 4.562-8.672 4.689m5.297-30.75c-.115-1.715-1.65-4.673-3.17-4.57-2.567.17-5.231 13.168-5.067 15.642.468-.128 2.894-.958 2.856-1.53-.057-.858-1.83-.26-1.876-.927-.057-.856 3.226-1.745 3.183-2.413-.02-.284-.78-.234-1.35-.195-.665.044-.963-.128-.989-.508-.089-1.335 6.564-3.213 6.413-5.5m26.393 28.635c-5.044.337-9.555-4.238-11.604-7.732-.757-1.29-1.131-4.037-1.36-7.462-.712-10.66 8.645-29.447 20.16-30.216 2.284-.152 7.76 4.549 8.122 9.974.637 9.517-5.942 12.63-18.142 17.462.348 3.8 1.776 6.573 6.153 6.28 2.95-.197 10.932-5.222 11.87-6.911.26-.398.528-.704.908-.73.286-.018.68.147.698.433.058.855-1.923 2.708-1.898 3.088.014.19.305.267.496.255.286-.02.889-1.014 1.174-1.034.19-.012.298.172.318.455.045.667-1.651 2.5-1.606 3.167.012.19.107.185.298.172.286-.02.617-.807.997-.832.19-.013.489.158.52.635.045.666-.09 1.535-8.432 8.307-.633.52-6.77 4.562-8.672 4.689m5.297-30.756c-.115-1.712-1.647-4.667-3.17-4.565-2.567.171-5.231 13.151-5.067 15.623.469-.127 2.897-.957 2.859-1.529-.057-.856-1.834-.26-1.878-.925-.058-.855 3.225-1.744 3.182-2.41-.02-.284-.78-.233-1.349-.194-.666.044-.964-.127-.989-.509-.09-1.332 6.563-3.209 6.412-5.491m13.937 8.158c-.432-6.472 9.609-16.417 11.886-18.1 8.655-6.41 9.892-7.926 11.226-8.016.568-.038.988.508 1.033 1.176.07 1.045-2.043 2.334-2.024 2.62.025.38.133.565.418.546.382-.026.743-.337 1.028-.356.38-.025.87.133.908.703.063.953-3.135 1.74-3.072 2.692.026.38.603.438 1.08.406.666-.045 1.242.012 1.268.393.038.572-.227.877-.17 1.732.07 1.049.849-.153.983 1.847.133 2-14.451 11.196-14.28 13.766.027.381.71.622 1.472.572.858-.058 4.993-1.1 6.897-1.227 4.092-.273 5.85 3.148 6.04 6.002.758 11.33-16.043 21.725-22.228 22.139-.857.057-1.226-1.163-1.308-2.399.032-.96 3.033-1.83 3.008-2.208-.014-.191-.114-.28-.21-.273-.19.012-.66.139-1.137.172-1.046.069-1.751-.458-1.794-1.125-.134-1.999.336-2.125.29-2.792-.024-.382-.252-.938-.291-1.51-.083-1.239 10.963-4.747 10.772-7.604-.076-1.143-9.992.667-10.665-.816-.45-1.023-.857-4.247-1.13-8.34m35.486 18.943c-3.237.217-6.083-3.8-6.37-8.082-.737-11.04.639-17.632 1.69-27.644-2.747-1.058-3.735-1.566-3.774-2.138-.044-.665.316-.976.887-1.014.476-.032.775.14 1.25.108.19-.013.38-.026.36-.311-.012-.191-.314-.457-2.061-.82l-.235-3.52c-.102-1.524.24-2.118.717-2.15.382-.025.863.038 1.153.112l3.219.933c.843-4.55 1.584-9.187 2.162-11.998.349-1.934.686-2.627 1.54-2.684 1.618-.108 2.965 1.427 3.047 2.665.102 1.522-.33 2.22-.292 2.792.032.474.152.848.533.824.763-.052.757-1.58 2.469-1.694.95-.064.768 2.912 1.147 2.887.38-.025.47-1.562.946-1.594.57-.038.693.336.75 1.194.19 2.855-1.188 6.579-1.712 10.152 2.697.296 5.19.416 5.397.69.21.273.319.457.356 1.029.166 1.039-.867 1.299-.792 2.442.039.569.648 1.103.68 1.58.02.285-.457.317-.743.336-.38.025-1.434 0-1.91.032-.38.025-.653.235-.621.71.057.856 3.742.227 3.862 2.037.077 1.14-.943 1.592-1.991 1.662-.951.063-4.548-.842-5.99-.938-.83 3.305-2.351 14.877-2.167 17.638.07 1.048.566 1.3 1.232 1.257 3.616-.242 8.049-5.413 8.622-5.451.475-.032.678.145.698.429.045.667-2.062 2.05-2.017 2.716.013.19.11.28.404.356.572-.038.934-.35 1.22-.368.38-.026.583.152.603.438.05.76-2.437 2.17-2.392 2.836.013.19.12.375.406.356.284-.02 1.103-.648 1.77-.692.19-.014.292.075.305.266.088 1.332-12.17 12.475-14.358 12.62m29.787-1.989c-5.044.337-9.555-4.237-11.604-7.732-.756-1.289-1.131-4.037-1.36-7.46-.712-10.66 8.644-29.448 20.16-30.217 2.285-.153 7.759 4.55 8.122 9.974.635 9.517-5.944 12.631-18.142 17.461.347 3.8 1.776 6.573 6.153 6.281 2.952-.197 10.932-5.223 11.87-6.912.26-.398.528-.703.907-.728.286-.019.679.146.699.431.057.856-1.923 2.708-1.897 3.09.013.19.305.266.496.253.285-.02.886-1.014 1.172-1.033.19-.013.299.172.317.455.045.667-1.65 2.5-1.604 3.167.013.19.108.184.299.171.286-.019.616-.806.994-.832.19-.013.49.16.52.635.045.667-.088 1.535-8.43 8.307-.635.521-6.77 4.562-8.672 4.69m5.307-30.753c-.113-1.712-1.651-4.67-3.172-4.568-2.571.172-5.24 13.16-5.074 15.633.468-.127 2.898-.957 2.86-1.528-.057-.858-1.833-.261-1.878-.928-.056-.854 3.23-1.744 3.186-2.411-.02-.283-.781-.233-1.353-.194-.666.044-.963-.127-.988-.508-.09-1.334 6.572-3.212 6.419-5.496m13.699 17.622c-.292-4.376.307-34.045 3.639-34.268.76-.05 1.11.883 1.186 2.026l.063.95c.096 1.429.419 1.978.705 1.96.572-.038.52-2.233 1.757-2.316 1.427-.095 1.935.35 2.062 2.252.045.667-.115 1.155-.088 1.537.018.283.228.556.418.544.286-.02.623-2.145 1.668-2.215.666-.044 1.296.775 1.359 1.725.134 2-3.291 15.13-3.158 17.127.032.477.147.756.525.731.477-.032.966-1.306 1.734-2.696 4.578-8.715 9.03-17.902 9.794-17.953 1.236-.083 1.49.856 2.67 1.351 1.079.406.554 1.11 1.16 1.643 1.855.546 3.016 2.188 3.143 4.09.38 5.71-.892 10.957-.531 16.378.045.667.629.82 1.198.781 1.238-.083 3.142-4.51 3.808-4.554.286-.02.489.16.509.444.038.569-.978 1.115-.921 1.973.025.38.05.76.356 1.026.177-.203.538-.514.73-.527.283-.018.398.26.41.45.02.286-1.115 1.893-1.065 2.652.025.382.312.363.337.744.05.76-.857 1.49-.832 1.87.014.191.127.47.413.451.477-.032.972-1.213 1.447-1.245.19-.013.393.165.418.546.077 1.143-8.157 10.963-8.685 11.666-.708.813-1.458 1.053-2.03 1.092-2.188.146-5.654-5.93-5.787-7.927-.204-3.045.05-7.841-.147-9.356-.05-.762-.28-1.32-.66-1.295-1.236.082-7.592 17.997-9.78 18.144-1.713.114-4.277-2.488-5.02-3.586-1.484-2.194-2.678-4.313-2.805-6.215"/></g></g></svg>